<?xml version="1.0" encoding="UTF-8" standalone="no"?>
<!DOCTYPE svg PUBLIC "-//W3C//DTD SVG 1.1//EN"
 "http://www.w3.org/Graphics/SVG/1.1/DTD/svg11.dtd">
<!-- Generated by graphviz version 14.1.4 (20260321.0153)
 -->
<!-- Title: SessionLog Pages: 1 -->
<svg width="279pt" height="496pt"
 viewBox="0.00 0.00 279.00 496.00" xmlns="http://www.w3.org/2000/svg" xmlns:xlink="http://www.w3.org/1999/xlink">
<g id="graph0" class="graph" transform="scale(1 1) rotate(0) translate(4 492.4)">
<title>SessionLog</title>
<polygon fill="white" stroke="none" points="-4,4 -4,-492.4 275.27,-492.4 275.27,4 -4,4"/>
<!-- __start__ -->
<g id="node1" class="node">
<title>__start__</title>
<ellipse fill="#2c3e50" stroke="#2c3e50" cx="198.75" cy="-475.8" rx="12.6" ry="12.6"/>
<text xml:space="preserve" text-anchor="middle" x="198.75" y="-473.07" font-family="Helvetica,sans-Serif" font-size="8.00" fill="white">In</text>
</g>
<!-- agent_0 -->
<g id="node3" class="node">
<title>agent_0</title>
<path fill="#ffffff" stroke="#888888" d="M259.27,-420.2C259.27,-420.2 138.22,-420.2 138.22,-420.2 132.22,-420.2 126.22,-414.2 126.22,-408.2 126.22,-408.2 126.22,-396.2 126.22,-396.2 126.22,-390.2 132.22,-384.2 138.22,-384.2 138.22,-384.2 259.27,-384.2 259.27,-384.2 265.27,-384.2 271.27,-390.2 271.27,-396.2 271.27,-396.2 271.27,-408.2 271.27,-408.2 271.27,-414.2 265.27,-420.2 259.27,-420.2"/>
<text xml:space="preserve" text-anchor="start" x="140.62" y="-399.5" font-family="Helvetica,sans-Serif" font-weight="bold" font-size="11.00">Requirements Analyst</text>
</g>
<!-- __start__&#45;&gt;agent_0 -->
<g id="edge1" class="edge">
<title>__start__&#45;&gt;agent_0</title>
<path fill="none" stroke="#888888" d="M198.75,-462.98C198.75,-454.52 198.75,-442.75 198.75,-431.9"/>
<polygon fill="#888888" stroke="#888888" points="202.25,-432.19 198.75,-422.19 195.25,-432.19 202.25,-432.19"/>
<text xml:space="preserve" text-anchor="start" x="3.75" y="-449.69" font-family="Helvetica,sans-Serif" font-size="8.00" fill="#555555">[22:17:15] You are a Requirements Analyst for datab…</text>
</g>
<!-- __end__ -->
<g id="node2" class="node">
<title>__end__</title>
<ellipse fill="#2c3e50" stroke="#2c3e50" cx="198.75" cy="-12.6" rx="12.6" ry="12.6"/>
<text xml:space="preserve" text-anchor="middle" x="198.75" y="-9.88" font-family="Helvetica,sans-Serif" font-size="8.00" fill="white">Out</text>
</g>
<!-- agent_1 -->
<g id="node4" class="node">
<title>agent_1</title>
<path fill="#ffffff" stroke="#888888" d="M240.52,-341.2C240.52,-341.2 156.98,-341.2 156.98,-341.2 150.98,-341.2 144.98,-335.2 144.98,-329.2 144.98,-329.2 144.98,-317.2 144.98,-317.2 144.98,-311.2 150.98,-305.2 156.98,-305.2 156.98,-305.2 240.52,-305.2 240.52,-305.2 246.52,-305.2 252.52,-311.2 252.52,-317.2 252.52,-317.2 252.52,-329.2 252.52,-329.2 252.52,-335.2 246.52,-341.2 240.52,-341.2"/>
<text xml:space="preserve" text-anchor="start" x="159.38" y="-320.5" font-family="Helvetica,sans-Serif" font-weight="bold" font-size="11.00">SQL Developer</text>
</g>
<!-- agent_0&#45;&gt;agent_1 -->
<g id="edge2" class="edge">
<title>agent_0&#45;&gt;agent_1</title>
<path fill="none" stroke="#888888" d="M198.75,-383.73C198.75,-374.67 198.75,-363.37 198.75,-353.06"/>
<polygon fill="#888888" stroke="#888888" points="202.25,-353.12 198.75,-343.12 195.25,-353.12 202.25,-353.12"/>
<text xml:space="preserve" text-anchor="start" x="4.5" y="-370.64" font-family="Helvetica,sans-Serif" font-size="8.00" fill="#555555">[22:17:21] You are a SQL Developer. Convert the fol…</text>
</g>
<!-- agent_2 -->
<g id="node5" class="node">
<title>agent_2</title>
<path fill="#ffffff" stroke="#888888" d="M258.9,-262.2C258.9,-262.2 138.6,-262.2 138.6,-262.2 132.6,-262.2 126.6,-256.2 126.6,-250.2 126.6,-250.2 126.6,-238.2 126.6,-238.2 126.6,-232.2 132.6,-226.2 138.6,-226.2 138.6,-226.2 258.9,-226.2 258.9,-226.2 264.9,-226.2 270.9,-232.2 270.9,-238.2 270.9,-238.2 270.9,-250.2 270.9,-250.2 270.9,-256.2 264.9,-262.2 258.9,-262.2"/>
<text xml:space="preserve" text-anchor="start" x="141" y="-241.5" font-family="Helvetica,sans-Serif" font-weight="bold" font-size="11.00">Database Critic (DBA)</text>
</g>
<!-- agent_1&#45;&gt;agent_2 -->
<g id="edge3" class="edge">
<title>agent_1&#45;&gt;agent_2</title>
<path fill="none" stroke="#888888" d="M198.75,-304.73C198.75,-295.67 198.75,-284.37 198.75,-274.06"/>
<polygon fill="#888888" stroke="#888888" points="202.25,-274.12 198.75,-264.12 195.25,-274.12 202.25,-274.12"/>
<text xml:space="preserve" text-anchor="start" x="6" y="-291.64" font-family="Helvetica,sans-Serif" font-size="8.00" fill="#555555">[22:17:26] You are a Senior Database Critic (DBA). …</text>
</g>
<!-- agent_3 -->
<g id="node6" class="node">
<title>agent_3</title>
<path fill="#ffffff" stroke="#888888" d="M253.65,-183.2C253.65,-183.2 143.85,-183.2 143.85,-183.2 137.85,-183.2 131.85,-177.2 131.85,-171.2 131.85,-171.2 131.85,-159.2 131.85,-159.2 131.85,-153.2 137.85,-147.2 143.85,-147.2 143.85,-147.2 253.65,-147.2 253.65,-147.2 259.65,-147.2 265.65,-153.2 265.65,-159.2 265.65,-159.2 265.65,-171.2 265.65,-171.2 265.65,-177.2 259.65,-183.2 253.65,-183.2"/>
<text xml:space="preserve" text-anchor="start" x="146.25" y="-162.5" font-family="Helvetica,sans-Serif" font-weight="bold" font-size="11.00">SQL Developer (Fix)</text>
</g>
<!-- agent_2&#45;&gt;agent_3 -->
<g id="edge4" class="edge">
<title>agent_2&#45;&gt;agent_3</title>
<path fill="none" stroke="#888888" d="M198.75,-225.73C198.75,-216.67 198.75,-205.37 198.75,-195.06"/>
<polygon fill="#888888" stroke="#888888" points="202.25,-195.12 198.75,-185.12 195.25,-195.12 202.25,-195.12"/>
<text xml:space="preserve" text-anchor="start" x="0.75" y="-212.64" font-family="Helvetica,sans-Serif" font-size="8.00" fill="#555555">[22:17:29] You are a SQL Developer. Your previous S…</text>
</g>
<!-- agent_4 -->
<g id="node7" class="node">
<title>agent_4</title>
<path fill="#ffffff" stroke="#888888" d="M233.4,-104.2C233.4,-104.2 164.1,-104.2 164.1,-104.2 158.1,-104.2 152.1,-98.2 152.1,-92.2 152.1,-92.2 152.1,-80.2 152.1,-80.2 152.1,-74.2 158.1,-68.2 164.1,-68.2 164.1,-68.2 233.4,-68.2 233.4,-68.2 239.4,-68.2 245.4,-74.2 245.4,-80.2 245.4,-80.2 245.4,-92.2 245.4,-92.2 245.4,-98.2 239.4,-104.2 233.4,-104.2"/>
<text xml:space="preserve" text-anchor="start" x="166.5" y="-83.5" font-family="Helvetica,sans-Serif" font-weight="bold" font-size="11.00">D2 Designer</text>
</g>
<!-- agent_3&#45;&gt;agent_4 -->
<g id="edge5" class="edge">
<title>agent_3&#45;&gt;agent_4</title>
<path fill="none" stroke="#888888" d="M198.75,-146.73C198.75,-137.67 198.75,-126.37 198.75,-116.06"/>
<polygon fill="#888888" stroke="#888888" points="202.25,-116.12 198.75,-106.12 195.25,-116.12 202.25,-116.12"/>
<text xml:space="preserve" text-anchor="start" x="0" y="-133.64" font-family="Helvetica,sans-Serif" font-size="8.00" fill="#555555">[22:17:33] You are an expert Diagram Designer using…</text>
</g>
<!-- agent_4&#45;&gt;__end__ -->
<g id="edge6" class="edge">
<title>agent_4&#45;&gt;__end__</title>
<path fill="none" stroke="#888888" d="M198.75,-67.87C198.75,-58.57 198.75,-46.98 198.75,-36.91"/>
<polygon fill="#888888" stroke="#888888" points="202.25,-37.13 198.75,-27.13 195.25,-37.13 202.25,-37.13"/>
</g>
</g>
</svg>
